<?xml version="1.0" encoding="UTF-8" standalone="no"?>
<!DOCTYPE svg PUBLIC "-//W3C//DTD SVG 1.1//EN"
 "http://www.w3.org/Graphics/SVG/1.1/DTD/svg11.dtd">
<!-- Generated by graphviz version 2.43.0 (0)
 -->
<!-- Title: %3 Pages: 1 -->
<svg width="931pt" height="1281pt"
 viewBox="0.00 0.00 931.00 1281.00" xmlns="http://www.w3.org/2000/svg" xmlns:xlink="http://www.w3.org/1999/xlink">
<g id="graph0" class="graph" transform="scale(1 1) rotate(0) translate(4 1277)">
<title>%3</title>
<polygon fill="white" stroke="transparent" points="-4,4 -4,-1277 927,-1277 927,4 -4,4"/>
<g id="clust1" class="cluster">
<title>cluster_env</title>
<polygon fill="none" stroke="#aaaaaa" stroke-dasharray="5,2" points="508.5,-8 508.5,-464 645.5,-464 645.5,-8 508.5,-8"/>
<text text-anchor="middle" x="577" y="-448.8" font-family="Times,serif" font-size="14.00">External Environment</text>
</g>
<g id="clust2" class="cluster">
<title>cluster_control</title>
</g>
<g id="clust3" class="cluster">
<title>cluster_logic</title>
<polygon fill="#f9f9f9" stroke="#f9f9f9" points="246,-800 246,-1121 634,-1121 634,-800 246,-800"/>
<text text-anchor="middle" x="295" y="-1105.8" font-family="Times,serif" font-size="14.00">Protocol Layer</text>
</g>
<g id="clust4" class="cluster">
<title>cluster_core</title>
<polygon fill="none" stroke="grey" stroke-dasharray="1,5" points="786,-1014 786,-1204 915,-1204 915,-1014 786,-1014"/>
<text text-anchor="middle" x="832" y="-1188.8" font-family="Times,serif" font-size="14.00">Core Services</text>
</g>
<g id="clust5" class="cluster">
<title>cluster_io</title>
<polygon fill="#f0f0f0" stroke="#f0f0f0" points="519,-1129 519,-1204 634,-1204 634,-1129 519,-1129"/>
<text text-anchor="middle" x="554" y="-1188.8" font-family="Times,serif" font-size="14.00">I/O Layer</text>
</g>
<!-- User -->
<g id="node1" class="node">
<title>User</title>
<ellipse fill="#eeeeee" stroke="black" cx="576.5" cy="-52" rx="36" ry="36"/>
<text text-anchor="middle" x="576.5" y="-49.5" font-family="Helvetica,sans-Serif" font-size="10.00">CLI User</text>
</g>
<!-- CLIRouter -->
<g id="node5" class="node">
<title>CLIRouter</title>
<g id="a_node5"><a xlink:title="Argv Parser &amp; Dispatcher">
<polygon fill="#d1e7dd" stroke="black" points="100,-1173 16,-1173 16,-1169 12,-1169 12,-1165 16,-1165 16,-1145 12,-1145 12,-1141 16,-1141 16,-1137 100,-1137 100,-1173"/>
<polyline fill="none" stroke="black" points="16,-1169 20,-1169 20,-1165 16,-1165 "/>
<polyline fill="none" stroke="black" points="16,-1145 20,-1145 20,-1141 16,-1141 "/>
<text text-anchor="middle" x="58" y="-1158" font-family="Helvetica,sans-Serif" font-size="10.00">CLI Router</text>
<text text-anchor="start" x="24" y="-1147" font-family="Helvetica,sans-Serif" font-size="10.00">(Main Function)</text>
</a>
</g>
</g>
<!-- User&#45;&gt;CLIRouter -->
<g id="edge1" class="edge">
<title>User&#45;&gt;CLIRouter</title>
<path fill="none" stroke="#444444" stroke-width="2" d="M540.34,-55.09C453.14,-64.91 227.88,-104 143,-250 97.93,-327.53 66.67,-981 60.23,-1126.4"/>
<polygon fill="#444444" stroke="#444444" stroke-width="2" points="56.72,-1126.57 59.78,-1136.71 63.71,-1126.88 56.72,-1126.57"/>
<text text-anchor="middle" x="307.5" y="-150.6" font-family="Helvetica,sans-Serif" font-size="8.00">exec arguments</text>
</g>
<!-- FileSystem -->
<g id="node2" class="node">
<title>FileSystem</title>
<polygon fill="#f8f8ff" stroke="black" points="621,-203 618,-207 597,-207 594,-203 532,-203 532,-167 621,-167 621,-203"/>
<text text-anchor="middle" x="576.5" y="-188" font-family="Helvetica,sans-Serif" font-size="10.00">File System</text>
<text text-anchor="middle" x="576.5" y="-177" font-family="Helvetica,sans-Serif" font-size="10.00">(.torrent / output)</text>
</g>
<!-- FileSystem&#45;&gt;CLIRouter -->
<g id="edge3" class="edge">
<title>FileSystem&#45;&gt;CLIRouter</title>
<path fill="none" stroke="#444444" d="M550.68,-203.05C537.15,-213.68 520.73,-227.96 508.5,-243 297.91,-501.93 276.86,-593.26 143,-899 107.86,-979.27 79.17,-1079.15 66.3,-1126.95"/>
<polygon fill="#444444" stroke="#444444" points="62.85,-1126.31 63.66,-1136.87 69.62,-1128.11 62.85,-1126.31"/>
<text text-anchor="middle" x="307.5" y="-659.6" font-family="Helvetica,sans-Serif" font-size="8.00">Raw bytes</text>
</g>
<!-- Tracker -->
<g id="node3" class="node">
<title>Tracker</title>
<polygon fill="#fff0f5" stroke="black" points="615.5,-433 541.5,-433 537.5,-429 537.5,-397 611.5,-397 615.5,-401 615.5,-433"/>
<polyline fill="none" stroke="black" points="611.5,-429 537.5,-429 "/>
<polyline fill="none" stroke="black" points="611.5,-429 611.5,-397 "/>
<polyline fill="none" stroke="black" points="611.5,-429 615.5,-433 "/>
<text text-anchor="middle" x="576.5" y="-412.5" font-family="Helvetica,sans-Serif" font-size="10.00">HTTP Tracker</text>
</g>
<!-- RemotePeer -->
<g id="node4" class="node">
<title>RemotePeer</title>
<polygon fill="#fff0f5" stroke="black" points="623.5,-318 533.5,-318 529.5,-314 529.5,-282 619.5,-282 623.5,-286 623.5,-318"/>
<polyline fill="none" stroke="black" points="619.5,-314 529.5,-314 "/>
<polyline fill="none" stroke="black" points="619.5,-314 619.5,-282 "/>
<polyline fill="none" stroke="black" points="619.5,-314 623.5,-318 "/>
<text text-anchor="middle" x="576.5" y="-303" font-family="Helvetica,sans-Serif" font-size="10.00">Remote Peer</text>
<text text-anchor="middle" x="576.5" y="-292" font-family="Helvetica,sans-Serif" font-size="10.00">(TCP / BitTorrent)</text>
</g>
<!-- CLIRouter&#45;&gt;FileSystem -->
<g id="edge2" class="edge">
<title>CLIRouter&#45;&gt;FileSystem</title>
<path fill="none" stroke="blue" d="M59.79,-1136.86C64.92,-1022.31 94.78,-401.79 143,-334 230.53,-210.97 426.59,-188.5 521.71,-185.08"/>
<polygon fill="blue" stroke="blue" points="522.08,-188.57 531.97,-184.77 521.87,-181.57 522.08,-188.57"/>
<text text-anchor="middle" x="307.5" y="-247.6" font-family="Helvetica,sans-Serif" font-size="8.00">1. Read .torrent</text>
</g>
<!-- ConfigLoader -->
<g id="node6" class="node">
<title>ConfigLoader</title>
<polygon fill="#d1e7dd" stroke="black" points="348.5,-1234 266.5,-1234 266.5,-1230 262.5,-1230 262.5,-1226 266.5,-1226 266.5,-1206 262.5,-1206 262.5,-1202 266.5,-1202 266.5,-1198 348.5,-1198 348.5,-1234"/>
<polyline fill="none" stroke="black" points="266.5,-1230 270.5,-1230 270.5,-1226 266.5,-1226 "/>
<polyline fill="none" stroke="black" points="266.5,-1206 270.5,-1206 270.5,-1202 266.5,-1202 "/>
<text text-anchor="start" x="274.5" y="-1219" font-family="Helvetica,sans-Serif" font-size="10.00">Torrent Loader</text>
<text text-anchor="start" x="274.5" y="-1208" font-family="Helvetica,sans-Serif" font-size="10.00">(Struct Builder)</text>
</g>
<!-- CLIRouter&#45;&gt;ConfigLoader -->
<g id="edge4" class="edge">
<title>CLIRouter&#45;&gt;ConfigLoader</title>
<path fill="none" stroke="#444444" d="M100.15,-1165.14C143.18,-1175.75 210.72,-1192.39 256.73,-1203.73"/>
<polygon fill="#444444" stroke="#444444" points="255.94,-1207.14 266.49,-1206.14 257.61,-1200.35 255.94,-1207.14"/>
<text text-anchor="start" x="145.5" y="-1201.6" font-family="Helvetica,sans-Serif" font-size="8.00">2. Parse &amp; Build</text>
<text text-anchor="start" x="145.5" y="-1192.6" font-family="Helvetica,sans-Serif" font-size="8.00">TorrentInfo Struct</text>
</g>
<!-- DiscoveryService -->
<g id="node7" class="node">
<title>DiscoveryService</title>
<polygon fill="#fff3cd" stroke="black" points="356,-1090 259,-1090 259,-1086 255,-1086 255,-1082 259,-1082 259,-1062 255,-1062 255,-1058 259,-1058 259,-1054 356,-1054 356,-1090"/>
<polyline fill="none" stroke="black" points="259,-1086 263,-1086 263,-1082 259,-1082 "/>
<polyline fill="none" stroke="black" points="259,-1062 263,-1062 263,-1058 259,-1058 "/>
<text text-anchor="start" x="267" y="-1075" font-family="Helvetica,sans-Serif" font-size="10.00">Discovery Service</text>
<text text-anchor="start" x="267" y="-1064" font-family="Helvetica,sans-Serif" font-size="10.00">(GetPeers Logic)</text>
</g>
<!-- CLIRouter&#45;&gt;DiscoveryService -->
<g id="edge6" class="edge">
<title>CLIRouter&#45;&gt;DiscoveryService</title>
<path fill="none" stroke="#444444" stroke-width="2" d="M100.15,-1141.2C140.87,-1127.54 203.56,-1106.52 249.15,-1091.23"/>
<polygon fill="#444444" stroke="#444444" stroke-width="2" points="250.53,-1094.46 258.9,-1087.96 248.31,-1087.82 250.53,-1094.46"/>
<text text-anchor="middle" x="177" y="-1127.6" font-family="Helvetica,sans-Serif" font-size="8.00">3. Invoke discovery</text>
</g>
<!-- HandshakeMgr -->
<g id="node8" class="node">
<title>HandshakeMgr</title>
<polygon fill="#fff3cd" stroke="black" points="361,-844 254,-844 254,-840 250,-840 250,-836 254,-836 254,-816 250,-816 250,-812 254,-812 254,-808 361,-808 361,-844"/>
<polyline fill="none" stroke="black" points="254,-840 258,-840 258,-836 254,-836 "/>
<polyline fill="none" stroke="black" points="254,-816 258,-816 258,-812 254,-812 "/>
<text text-anchor="start" x="262" y="-829" font-family="Helvetica,sans-Serif" font-size="10.00">Handshake Manager</text>
<text text-anchor="start" x="262" y="-818" font-family="Helvetica,sans-Serif" font-size="10.00">(Standard &amp; Ext.)</text>
</g>
<!-- CLIRouter&#45;&gt;HandshakeMgr -->
<g id="edge9" class="edge">
<title>CLIRouter&#45;&gt;HandshakeMgr</title>
<path fill="none" stroke="#444444" stroke-width="2" d="M66.63,-1136.83C79.91,-1106.19 109.12,-1042.89 143,-995 181.87,-940.06 198.8,-931.97 246,-884 256.84,-872.98 269.1,-861.12 279.73,-851.02"/>
<polygon fill="#444444" stroke="#444444" stroke-width="2" points="282.29,-853.42 287.15,-844 277.48,-848.33 282.29,-853.42"/>
<text text-anchor="middle" x="177" y="-997.6" font-family="Helvetica,sans-Serif" font-size="8.00">4. Connect</text>
</g>
<!-- DownloadEngine -->
<g id="node9" class="node">
<title>DownloadEngine</title>
<polygon fill="#fff3cd" stroke="black" points="354,-975 261,-975 261,-971 257,-971 257,-967 261,-967 261,-931 257,-931 257,-927 261,-927 261,-923 354,-923 354,-975"/>
<polyline fill="none" stroke="black" points="261,-971 265,-971 265,-967 261,-967 "/>
<polyline fill="none" stroke="black" points="261,-931 265,-931 265,-927 261,-927 "/>
<text text-anchor="start" x="269" y="-963" font-family="Helvetica,sans-Serif" font-size="10.00">Download Engine</text>
<text text-anchor="start" x="269" y="-952" font-family="Helvetica,sans-Serif" font-size="10.00">&#45; State Machine</text>
<text text-anchor="start" x="269" y="-941" font-family="Helvetica,sans-Serif" font-size="10.00">&#45; Block Req/Res</text>
<text text-anchor="start" x="269" y="-930" font-family="Helvetica,sans-Serif" font-size="10.00">&#45; Integrity Check</text>
</g>
<!-- CLIRouter&#45;&gt;DownloadEngine -->
<g id="edge12" class="edge">
<title>CLIRouter&#45;&gt;DownloadEngine</title>
<path fill="none" stroke="#444444" stroke-width="2" d="M77.99,-1136.85C94.78,-1120.98 120.1,-1097.49 143,-1078 182.98,-1043.98 230.21,-1007.05 263.6,-981.46"/>
<polygon fill="#444444" stroke="#444444" stroke-width="2" points="265.96,-984.06 271.77,-975.21 261.7,-978.5 265.96,-984.06"/>
<text text-anchor="middle" x="177" y="-1080.6" font-family="Helvetica,sans-Serif" font-size="8.00">5. Download loop</text>
</g>
<!-- BCodec -->
<g id="node11" class="node">
<title>BCodec</title>
<polygon fill="#e1d2ff" stroke="black" points="907,-1173 794,-1173 794,-1169 790,-1169 790,-1165 794,-1165 794,-1145 790,-1145 790,-1141 794,-1141 794,-1137 907,-1137 907,-1173"/>
<polyline fill="none" stroke="black" points="794,-1169 798,-1169 798,-1165 794,-1165 "/>
<polyline fill="none" stroke="black" points="794,-1145 798,-1145 798,-1141 794,-1141 "/>
<text text-anchor="start" x="802" y="-1158" font-family="Helvetica,sans-Serif" font-size="10.00">BEncoder Component</text>
<text text-anchor="start" x="802" y="-1147" font-family="Helvetica,sans-Serif" font-size="10.00">(JSON &lt;&#45;&gt; BEncode)</text>
</g>
<!-- ConfigLoader&#45;&gt;BCodec -->
<g id="edge5" class="edge">
<title>ConfigLoader&#45;&gt;BCodec</title>
<path fill="none" stroke="#444444" d="M348.72,-1224.78C365.69,-1228.06 385.72,-1231.39 404,-1233 511.01,-1242.45 540.04,-1243.48 645.5,-1223 698.26,-1212.76 756.19,-1192.53 796.79,-1176.79"/>
<polygon fill="#444444" stroke="#444444" points="798.18,-1180 806.21,-1173.1 795.63,-1173.49 798.18,-1180"/>
<text text-anchor="middle" x="576.5" y="-1241.6" font-family="Helvetica,sans-Serif" font-size="8.00">Decode raw</text>
</g>
<!-- CryptoService -->
<g id="node12" class="node">
<title>CryptoService</title>
<polygon fill="#e1d2ff" stroke="black" points="900.5,-1058 800.5,-1058 800.5,-1054 796.5,-1054 796.5,-1050 800.5,-1050 800.5,-1030 796.5,-1030 796.5,-1026 800.5,-1026 800.5,-1022 900.5,-1022 900.5,-1058"/>
<polyline fill="none" stroke="black" points="800.5,-1054 804.5,-1054 804.5,-1050 800.5,-1050 "/>
<polyline fill="none" stroke="black" points="800.5,-1030 804.5,-1030 804.5,-1026 800.5,-1026 "/>
<text text-anchor="start" x="808.5" y="-1043" font-family="Helvetica,sans-Serif" font-size="10.00">Crypto Service</text>
<text text-anchor="start" x="808.5" y="-1032" font-family="Helvetica,sans-Serif" font-size="10.00">(OpenSSL / SHA1)</text>
</g>
<!-- DiscoveryService&#45;&gt;CryptoService -->
<g id="edge8" class="edge">
<title>DiscoveryService&#45;&gt;CryptoService</title>
<path fill="none" stroke="#444444" d="M330.36,-1053.85C341.28,-1043.58 353.68,-1029.84 361,-1015 410.46,-914.66 318.41,-839.03 404,-767 444.18,-733.18 608.85,-776.52 645.5,-798 737,-851.61 806.48,-961.92 835.14,-1012.98"/>
<polygon fill="#444444" stroke="#444444" points="832.11,-1014.73 840.01,-1021.79 838.24,-1011.35 832.11,-1014.73"/>
<text text-anchor="middle" x="576.5" y="-800.6" font-family="Helvetica,sans-Serif" font-size="8.00">UrlEncode(Hash)</text>
</g>
<!-- NetworkMgr -->
<g id="node13" class="node">
<title>NetworkMgr</title>
<polygon fill="#ffd2d2" stroke="black" points="626,-1173 527,-1173 527,-1169 523,-1169 523,-1165 527,-1165 527,-1145 523,-1145 523,-1141 527,-1141 527,-1137 626,-1137 626,-1173"/>
<polyline fill="none" stroke="black" points="527,-1169 531,-1169 531,-1165 527,-1165 "/>
<polyline fill="none" stroke="black" points="527,-1145 531,-1145 531,-1141 527,-1141 "/>
<text text-anchor="start" x="535" y="-1158" font-family="Helvetica,sans-Serif" font-size="10.00">Network Adapter</text>
<text text-anchor="start" x="535" y="-1147" font-family="Helvetica,sans-Serif" font-size="10.00">(Socket / Connect)</text>
</g>
<!-- DiscoveryService&#45;&gt;NetworkMgr -->
<g id="edge7" class="edge">
<title>DiscoveryService&#45;&gt;NetworkMgr</title>
<path fill="none" stroke="#444444" d="M338.6,-1090.1C346.52,-1095.8 354.63,-1102.57 361,-1110 388.3,-1141.84 368.22,-1172.12 404,-1194 445.67,-1219.48 502.21,-1197.9 538.78,-1178.11"/>
<polygon fill="#444444" stroke="#444444" points="540.62,-1181.1 547.63,-1173.15 537.19,-1174.99 540.62,-1181.1"/>
<text text-anchor="middle" x="444" y="-1207.6" font-family="Helvetica,sans-Serif" font-size="8.00">HTTP GET /announce</text>
</g>
<!-- MagnetLogic -->
<g id="node10" class="node">
<title>MagnetLogic</title>
<polygon fill="#ffe0b3" stroke="black" points="626,-882 527,-882 527,-878 523,-878 523,-874 527,-874 527,-854 523,-854 523,-850 527,-850 527,-846 626,-846 626,-882"/>
<polyline fill="none" stroke="black" points="527,-878 531,-878 531,-874 527,-874 "/>
<polyline fill="none" stroke="black" points="527,-854 531,-854 531,-850 527,-850 "/>
<text text-anchor="start" x="535" y="-867" font-family="Helvetica,sans-Serif" font-size="10.00">Extension Protocol</text>
<text text-anchor="start" x="535" y="-856" font-family="Helvetica,sans-Serif" font-size="10.00">(Magnet/Metadata)</text>
</g>
<!-- HandshakeMgr&#45;&gt;MagnetLogic -->
<g id="edge11" class="edge">
<title>HandshakeMgr&#45;&gt;MagnetLogic</title>
<path fill="none" stroke="#444444" d="M361.25,-833.51C406.13,-839.9 470.52,-849.06 516.98,-855.67"/>
<polygon fill="#444444" stroke="#444444" points="516.51,-859.14 526.9,-857.08 517.5,-852.21 516.51,-859.14"/>
<text text-anchor="middle" x="444" y="-852.6" font-family="Helvetica,sans-Serif" font-size="8.00">If Magnet Link</text>
</g>
<!-- HandshakeMgr&#45;&gt;CryptoService -->
<g id="edge19" class="edge">
<title>HandshakeMgr&#45;&gt;CryptoService</title>
<path fill="none" stroke="#444444" stroke-dasharray="5,2" d="M321.19,-807.66C337.48,-785.84 368,-750.41 404,-735 427.47,-724.95 643.29,-729.38 645.5,-730 698.32,-744.77 715.54,-752.17 751,-794 807.26,-860.37 834.15,-962.93 844.36,-1011.99"/>
<polygon fill="#444444" stroke="#444444" points="840.95,-1012.78 846.35,-1021.89 847.82,-1011.4 840.95,-1012.78"/>
<text text-anchor="middle" x="576.5" y="-732.6" font-family="Helvetica,sans-Serif" font-size="8.00">Generate PeerID</text>
</g>
<!-- HandshakeMgr&#45;&gt;NetworkMgr -->
<g id="edge10" class="edge">
<title>HandshakeMgr&#45;&gt;NetworkMgr</title>
<path fill="none" stroke="#444444" d="M326.2,-844.23C336.72,-855.38 350.09,-870.12 361,-884 421.11,-960.46 439.84,-978.34 484,-1065 498.59,-1093.62 485.46,-1110.61 508.5,-1133 511.25,-1135.67 514.33,-1138.02 517.63,-1140.09"/>
<polygon fill="#444444" stroke="#444444" points="516.26,-1143.33 526.74,-1144.91 519.54,-1137.14 516.26,-1143.33"/>
<text text-anchor="start" x="409" y="-1076.6" font-family="Helvetica,sans-Serif" font-size="8.00">TCP Connect</text>
<text text-anchor="start" x="409" y="-1067.6" font-family="Helvetica,sans-Serif" font-size="8.00">&amp; Send Handshake</text>
</g>
<!-- DownloadEngine&#45;&gt;FileSystem -->
<g id="edge15" class="edge">
<title>DownloadEngine&#45;&gt;FileSystem</title>
<path fill="none" stroke="blue" d="M334.54,-922.9C344.26,-911.76 354.49,-898.09 361,-884 404.41,-789.98 375.74,-754.63 404,-655 431.03,-559.71 460.13,-543.13 484,-447 506,-358.37 465.65,-323.64 508.5,-243 515.41,-229.99 526.53,-218.6 537.74,-209.43"/>
<polygon fill="blue" stroke="blue" points="540.08,-212.05 545.85,-203.16 535.8,-206.51 540.08,-212.05"/>
<text text-anchor="middle" x="444" y="-657.6" font-family="Helvetica,sans-Serif" font-size="8.00">6. Write to Disk</text>
</g>
<!-- DownloadEngine&#45;&gt;CryptoService -->
<g id="edge14" class="edge">
<title>DownloadEngine&#45;&gt;CryptoService</title>
<path fill="none" stroke="#444444" d="M354.16,-956.68C451.88,-973.12 681.25,-1011.7 790.13,-1030.01"/>
<polygon fill="#444444" stroke="#444444" points="789.84,-1033.51 800.28,-1031.72 791,-1026.61 789.84,-1033.51"/>
<text text-anchor="start" x="554.5" y="-1016.6" font-family="Helvetica,sans-Serif" font-size="8.00">Verify SHA1</text>
<text text-anchor="start" x="554.5" y="-1007.6" font-family="Helvetica,sans-Serif" font-size="8.00">(Integrity)</text>
</g>
<!-- DownloadEngine&#45;&gt;NetworkMgr -->
<g id="edge13" class="edge">
<title>DownloadEngine&#45;&gt;NetworkMgr</title>
<path fill="none" stroke="#444444" d="M330.98,-975.23C340.68,-987.04 351.87,-1001.38 361,-1015 382.83,-1047.56 374.47,-1066.22 404,-1092 435.78,-1119.74 480.83,-1135.66 516.78,-1144.56"/>
<polygon fill="#444444" stroke="#444444" points="516.12,-1148 526.66,-1146.88 517.73,-1141.19 516.12,-1148"/>
<text text-anchor="start" x="412" y="-1145.6" font-family="Helvetica,sans-Serif" font-size="8.00">Send Req (ID 6)</text>
<text text-anchor="start" x="412" y="-1136.6" font-family="Helvetica,sans-Serif" font-size="8.00">Recv Piece (ID 7)</text>
</g>
<!-- MagnetLogic&#45;&gt;BCodec -->
<g id="edge18" class="edge">
<title>MagnetLogic&#45;&gt;BCodec</title>
<path fill="none" stroke="#444444" stroke-dasharray="5,2" d="M593.65,-882.36C639.06,-933.95 765.89,-1077.81 786,-1098 796.85,-1108.89 809.35,-1120.32 820.36,-1130.07"/>
<polygon fill="#444444" stroke="#444444" points="818.25,-1132.87 828.08,-1136.83 822.87,-1127.61 818.25,-1132.87"/>
<text text-anchor="middle" x="710" y="-1061.6" font-family="Helvetica,sans-Serif" font-size="8.00">Parse UT_METADATA</text>
</g>
<!-- NetworkMgr&#45;&gt;Tracker -->
<g id="edge16" class="edge">
<title>NetworkMgr&#45;&gt;Tracker</title>
<path fill="none" stroke="red" d="M526.69,-1145.81C519.84,-1142.7 513.47,-1138.54 508.5,-1133 402.45,-1014.67 419.07,-940.27 438,-782.5 453.78,-651.02 447.59,-610.59 508.5,-493 518.61,-473.48 534.59,-454.81 548.51,-440.62"/>
<polygon fill="red" stroke="red" points="551.34,-442.75 555.99,-433.23 546.42,-437.77 551.34,-442.75"/>
<text text-anchor="middle" x="444" y="-785.1" font-family="Helvetica,sans-Serif" font-size="8.00">HTTP Protocol</text>
</g>
<!-- NetworkMgr&#45;&gt;RemotePeer -->
<g id="edge17" class="edge">
<title>NetworkMgr&#45;&gt;RemotePeer</title>
<path fill="none" stroke="red" d="M527,-1146C520.02,-1142.87 513.53,-1138.66 508.5,-1133 401.46,-1012.63 453.74,-937.81 438,-777.5 419.52,-589.35 415,-522.32 508.5,-358 515.91,-344.98 527.41,-333.53 538.85,-324.32"/>
<polygon fill="red" stroke="red" points="541.28,-326.86 547.11,-318.01 537.04,-321.29 541.28,-326.86"/>
<text text-anchor="middle" x="444" y="-771.1" font-family="Helvetica,sans-Serif" font-size="8.00">BitTorrent TCP</text>
</g>
</g>
</svg>
